<svg width="236" height="52" viewBox="0 0 236 52" fill="none" xmlns="http://www.w3.org/2000/svg">
<rect width="236" height="52" fill="white"/>
<path d="M131.304 31.028C130.566 31.694 128.946 32.252 127.434 32.252C123.708 32.252 120.936 29.75 120.936 25.79C120.936 21.65 124.158 19.328 127.614 19.328C128.964 19.328 130.53 19.742 131.25 20.426V22.244H131.178C130.332 21.362 128.838 20.858 127.542 20.858C124.968 20.858 122.682 22.604 122.682 25.718C122.682 29.066 124.86 30.686 127.488 30.686C129.036 30.686 130.296 30.074 131.232 29.228H131.304V31.028Z" fill="#115840"/>
<path d="M141.878 27.536C141.878 30.218 139.862 32.234 137.162 32.234C134.48 32.234 132.5 30.236 132.5 27.536C132.5 24.854 134.57 22.838 137.216 22.838C139.97 22.838 141.878 24.764 141.878 27.536ZM140.186 27.536C140.186 25.772 139.016 24.35 137.198 24.35C135.452 24.35 134.192 25.718 134.192 27.536C134.192 29.462 135.524 30.704 137.216 30.704C138.998 30.704 140.186 29.318 140.186 27.536Z" fill="#115840"/>
<path d="M145.843 32H144.187V23.09H145.807V24.476C146.311 23.576 147.427 22.874 148.939 22.874C150.577 22.874 151.585 23.612 151.873 24.782C152.017 25.304 152.053 25.862 152.053 26.726V32H150.397V27.014C150.397 26.222 150.307 25.592 150.181 25.34C149.893 24.782 149.371 24.422 148.471 24.422C147.463 24.422 146.347 24.98 145.843 25.88V32Z" fill="#115840"/>
<path d="M159.716 31.766C159.23 32.108 158.348 32.198 157.79 32.198C156.98 32.198 156.134 31.856 155.756 31.334C155.396 30.848 155.27 30.146 155.27 29.12V24.44H153.866V23.09H155.288C155.288 23.09 155.288 23 155.36 20.498H156.926V23.09H159.41V24.44H156.926V28.922C156.926 29.606 157.016 29.984 157.16 30.218C157.304 30.452 157.7 30.65 158.276 30.65C158.69 30.65 159.284 30.524 159.644 30.272H159.716V31.766Z" fill="#115840"/>
<path d="M169.374 31.91C169.104 32.072 168.672 32.126 168.33 32.126C167.322 32.126 166.764 31.658 166.602 30.938C166.008 31.802 165.072 32.234 163.74 32.234C161.778 32.234 160.572 31.046 160.572 29.498C160.572 28.148 161.436 27.41 162.372 27.068C163.326 26.726 164.046 26.672 165.252 26.672C165.558 26.672 166.062 26.708 166.368 26.762V26.276C166.368 25.754 166.242 25.286 165.972 24.98C165.63 24.602 165.09 24.404 164.352 24.404C163.614 24.404 162.21 24.638 161.292 25.484H161.22V23.9C162.246 23.108 163.614 22.838 164.676 22.838C165.702 22.838 166.548 23.108 167.052 23.54C167.7 24.08 168.006 24.854 168.006 26.312C168.006 26.978 167.988 28.238 167.988 28.994C167.988 29.534 168.006 30.056 168.078 30.254C168.168 30.506 168.384 30.65 168.708 30.65C168.834 30.65 169.158 30.632 169.374 30.542V31.91ZM166.386 29.66C166.368 29.354 166.368 29.102 166.368 28.076C166.008 28.022 165.504 27.968 165.162 27.968C164.46 27.968 163.92 28.004 163.362 28.166C162.804 28.328 162.3 28.688 162.3 29.462C162.3 30.29 163.056 30.776 164.082 30.776C165 30.776 165.846 30.398 166.386 29.66Z" fill="#115840"/>
<path d="M177.997 31.298C177.313 31.802 176.431 32.234 174.973 32.234C172.453 32.234 170.311 30.452 170.311 27.59C170.311 24.872 172.345 22.838 175.135 22.838C176.233 22.838 177.421 23.162 177.961 23.756V25.502H177.889C177.259 24.764 176.125 24.368 175.099 24.368C173.461 24.368 172.003 25.52 172.003 27.536C172.003 29.624 173.551 30.722 175.135 30.722C176.341 30.722 177.223 30.362 177.925 29.624H177.997V31.298Z" fill="#115840"/>
<path d="M184.905 31.766C184.419 32.108 183.537 32.198 182.979 32.198C182.169 32.198 181.323 31.856 180.945 31.334C180.585 30.848 180.459 30.146 180.459 29.12V24.44H179.055V23.09H180.477C180.477 23.09 180.477 23 180.549 20.498H182.115V23.09H184.599V24.44H182.115V28.922C182.115 29.606 182.205 29.984 182.349 30.218C182.493 30.452 182.889 30.65 183.465 30.65C183.879 30.65 184.473 30.524 184.833 30.272H184.905V31.766Z" fill="#115840"/>
<path d="M200.464 19.598V26.582C200.464 28.4 200.266 29.3 199.798 30.092C199.096 31.28 197.494 32.252 195.37 32.252C193.336 32.252 191.554 31.478 190.816 30.002C190.42 29.21 190.294 28.022 190.294 26.618V19.598H192.04V26.348C192.04 27.482 192.058 28.544 192.544 29.408C192.994 30.2 194.092 30.704 195.424 30.704C196.63 30.704 197.638 30.272 198.214 29.426C198.628 28.832 198.826 27.914 198.826 26.456V19.598H200.464Z" fill="#115840"/>
<path d="M202.39 31.28V29.57H202.462C203.362 30.398 204.73 30.74 205.702 30.74C207.052 30.74 207.466 30.362 207.466 29.732C207.466 29.084 207.196 28.742 205.756 28.364L204.586 28.04C203.038 27.626 202.462 26.726 202.462 25.574C202.462 23.99 203.758 22.838 206.008 22.838C206.836 22.838 208.258 23.126 208.708 23.54V25.214H208.636C207.916 24.566 206.638 24.314 205.828 24.314C204.604 24.314 204.136 24.746 204.136 25.394C204.136 25.88 204.406 26.294 205.45 26.582L206.782 26.942C208.492 27.428 209.158 28.292 209.158 29.516C209.158 30.956 208.15 32.234 205.648 32.234C204.64 32.234 203.092 31.91 202.39 31.28Z" fill="#115840"/>
<line x1="107.5" y1="11" x2="107.5" y2="44" stroke="#979797"/>
<path fill-rule="evenodd" clip-rule="evenodd" d="M12.5605 18.1432L12.5169 18.1868H17.6633V19.4516H10.8596V25.1649L9.59487 23.5949V19.4516H2.79124V18.1868H7.98118L7.93757 18.1432C7.67589 17.7071 7.54505 17.2274 7.54505 16.704C7.54505 15.2212 8.76622 14 10.2491 14C11.7319 14 12.9531 15.2212 12.9531 16.704C12.9531 17.2274 12.8222 17.7071 12.5605 18.1432ZM7.02169 24.6416L13.6072 32.8844H15.2209L6.62917 22.1556H4.27407V23.4204H5.7133V31.6633H4.27407V32.8844H8.4173V31.6633H6.97808V24.5544L7.02169 24.6416ZM16.4857 22.1556H12.3425V23.4204H13.7817V28.2615H15.0465V23.4204H16.4857V22.1556ZM10.2491 18.1867C9.42042 18.1867 8.76622 17.5325 8.76622 16.7039C8.76622 15.8752 9.42042 15.221 10.2491 15.221C11.0777 15.221 11.7319 15.8752 11.7319 16.7039C11.6883 17.5325 11.0341 18.1867 10.2491 18.1867ZM16.791 34.5852C18.143 33.146 18.928 31.3142 19.1461 29.3952L20.3237 28.2177V28.4358C20.3237 30.3111 19.8439 32.1429 18.8408 33.7565C17.8813 35.3702 16.5293 36.635 14.872 37.5073L10.1618 41.6941L5.45162 37.5073C3.83794 36.6786 2.44233 35.3702 1.48284 33.8002C0.523356 32.1865 0 30.3547 0 28.4794V28.2613L1.30839 29.3952C1.52645 31.3578 2.31149 33.146 3.66349 34.5852C5.18995 36.2425 7.28337 37.2456 9.55125 37.42H9.59486V30.1803L10.8596 31.7503V37.42H10.9032C13.1711 37.2456 15.2645 36.2425 16.791 34.5852ZM10.2491 40.0371L8.54815 38.5542H8.63537C9.15873 38.6415 9.68209 38.6851 10.2054 38.6851C10.7288 38.6851 11.2522 38.6415 11.7755 38.5542H11.8627L10.2491 40.0371ZM29.7441 32.2739H27.2581V31.0964H33.5384V32.2739H31.0525V38.7286H29.7441V32.2739ZM41.7813 38.8159H42.3918V37.7255H41.8685C41.3887 37.7255 40.9962 37.5075 40.6473 36.9841C40.6473 36.9841 39.9495 35.9374 39.8623 35.7629C41.0398 35.5013 41.7813 34.7598 41.7813 33.4951C41.7813 32.2739 40.9526 31.0964 39.0772 31.0964H37.3327H35.5882H35.5446V38.7286H36.853V35.9374H38.3794C38.4533 35.9743 38.5272 36.1052 38.6542 36.3299L38.6545 36.3306C38.6773 36.3709 38.7018 36.4143 38.7283 36.4607C38.9028 36.766 39.3389 37.4202 39.3389 37.4202C40.0804 38.5106 40.6473 38.8159 41.7813 38.8159ZM36.853 32.274V34.7163L39.1209 34.6727C40.1676 34.6727 40.5165 34.1057 40.5165 33.4951C40.5165 32.8409 40.0804 32.274 39.1209 32.274H36.853ZM49.0646 35.5449C49.0646 36.8097 48.3232 37.6383 47.1457 37.6383H47.0148C45.8373 37.5947 45.1395 36.8097 45.1395 35.5449V31.0964H43.8311V35.5449C43.8311 37.5075 45.0522 38.8159 46.9712 38.8595H47.102C49.021 38.8595 50.2858 37.5511 50.2858 35.5449V31.0964H48.9774V35.5449H49.0646ZM53.7312 33.1024C53.7312 33.7566 54.429 33.9747 55.5193 34.1491C57.133 34.3672 58.6159 34.8033 58.5722 36.5478C58.5286 38.2923 56.915 38.9029 55.3885 38.9029C53.8184 38.9029 52.7717 38.336 52.1175 37.1584L52.0739 37.1148L53.077 36.4606L53.1206 36.5042C53.7312 37.5509 54.8215 37.7254 55.4321 37.7254C55.8682 37.7254 57.3075 37.6382 57.3075 36.5478C57.3075 35.8936 56.7405 35.5447 55.4321 35.3703C53.9929 35.1522 52.4664 34.8033 52.4664 33.1024C52.4664 32.5354 52.6845 32.0557 53.0334 31.7068C53.5568 31.1834 54.429 30.8781 55.4321 30.8781C56.7841 30.8781 57.7 31.3143 58.267 32.1865L58.3106 32.2301L57.3075 32.8843L57.2639 32.8407C56.915 32.3174 56.2171 32.0121 55.4321 32.0121C54.3854 32.0121 53.7312 32.4482 53.7312 33.1024ZM60.0551 32.2739H62.541V38.7286H63.8494V32.2739H66.3354V31.0964H60.0551V32.2739ZM52.2484 27.6074H51.6378C50.5039 27.6074 49.9369 27.2585 49.1955 26.1682C49.1955 26.1682 48.7593 25.514 48.5849 25.2087L48.539 25.128L48.5107 25.0778L48.5106 25.0778C48.3838 24.8531 48.3099 24.7223 48.236 24.6853H46.7095V27.4766H45.4011V19.8443H45.4447H47.1893H48.9338C50.8092 19.8443 51.6378 21.0218 51.6378 22.243C51.6378 23.5078 50.8964 24.2492 49.7188 24.5109C49.8061 24.6853 50.5039 25.7321 50.5039 25.7321C50.8528 26.2554 51.2453 26.4735 51.725 26.4735H52.2484V27.6074ZM46.7095 23.464V21.0653H48.9774C49.9369 21.0653 50.373 21.6323 50.373 22.2865C50.373 22.8971 50.0241 23.464 48.9774 23.464H46.7095ZM85.6559 27.6074H85.0454C83.9114 27.6074 83.3881 27.2585 82.603 26.1682C82.603 26.1682 82.1669 25.514 81.9924 25.2087C81.9658 25.162 81.9411 25.1184 81.9182 25.0778C81.7913 24.8531 81.7174 24.7223 81.6435 24.6853H80.1171V27.4766H78.8087V19.8443H78.8523H80.5968H82.3413C84.2167 19.8443 85.0454 21.0218 85.0454 22.243C85.0454 23.5078 84.3039 24.2492 83.1264 24.5109C83.2136 24.6853 83.9114 25.7321 83.9114 25.7321C84.2603 26.2554 84.6528 26.4735 85.1326 26.4735H85.6559V27.6074ZM80.1171 23.464V21.0653H82.385C83.3444 21.0653 83.7806 21.6323 83.7806 22.2865C83.7806 22.8971 83.4317 23.464 82.385 23.464H80.1171ZM28.3048 19.8877L32.4917 25.1213V19.8877H33.8001V27.52H32.797L28.6101 22.2864V27.52H27.2581V19.8877H28.2612H28.3048ZM59.4881 19.8877H53.2515V21.0653H55.6938V27.52H57.0458V21.0653H59.4881V19.8877ZM66.6843 24.3799H62.8027V27.52H61.4943V19.8877H62.8027V23.1587H66.6843V19.8877H67.9927V27.52H66.6843V24.3799ZM76.41 26.2116H72.0487V24.2926H76.1919V23.0715H72.0487V21.1525H76.3664V19.8877H70.7403V27.52H76.41V26.2116ZM92.7648 25.1213V19.8877H94.0732V27.52H93.0701V27.4764L88.8833 22.2864V27.52H87.5749V19.8877H88.5344H88.578L92.7648 25.1213ZM39.557 19.7134C37.3764 19.7134 35.5882 21.5015 35.5882 23.6822C35.5882 25.8628 37.3764 27.651 39.557 27.651C41.7376 27.651 43.5258 25.8628 43.5258 23.6822C43.5258 21.5015 41.7376 19.7134 39.557 19.7134ZM36.8094 23.7256C36.8094 25.2521 38.0305 26.4732 39.557 26.4732C41.0834 26.4732 42.3046 25.2085 42.3046 23.7256C42.3046 22.1992 41.0834 20.978 39.557 20.978C38.0305 20.978 36.8094 22.1992 36.8094 23.7256Z" fill="#336F5C"/>
</svg>
